# xmcd CD database file
#
# Track frame offsets:
#	150
#	14807
#	24062
#	36585
#	54410
#	65615
#	78962
#	89267
#	104360
#	116250
#
# Disc length: 1704 seconds
#
# Revision: 4
# Processed by: cddbd v1.5.2PL0 Copyright (c) Steve Scherf et al.
# Submitted via: CDex 1.51
#
DISCID=7806a60a
DTITLE=George Strait - Does Fort Worth Ever Cross Your Mind
DYEAR=1984
DGENRE=Country
TTITLE0=Does Fort Worth Ever Cross Your Mind
TTITLE1=Any Old Time
TTITLE2=I Need Someone Like Me
TTITLE3=You're Dancin' This Dance All Wrong
TTITLE4=Honky Tonk Saturday Night
TTITLE5=I Should Have Watched That First Step
TTITLE6=Love Comes From The Other Side Of Town
TTITLE7=The Cowboy Rides Away
TTITLE8=What Did You Expect Me To Do
TTITLE9=The Fireman
EXTD=YEAR: 1984
EXTT0=
EXTT1=
EXTT2=
EXTT3=
EXTT4=
EXTT5=
EXTT6=
EXTT7=
EXTT8=
EXTT9=
PLAYORDER=
